<svg width="45" height="45" viewBox="0 0 45 45" fill="none" xmlns="http://www.w3.org/2000/svg">
<path d="M30 39.375V35.625C30 33.6359 29.2098 31.7282 27.8033 30.3217C26.3968 28.9152 24.4891 28.125 22.5 28.125H11.25C9.26088 28.125 7.35322 28.9152 5.9467 30.3217C4.54018 31.7282 3.75 33.6359 3.75 35.625V39.375M41.25 39.3748V35.6248C41.2488 33.963 40.6957 32.3487 39.6776 31.0354C38.6595 29.722 37.234 28.784 35.625 28.3685M30 5.86853C31.6133 6.28159 33.0432 7.21984 34.0643 8.53536C35.0855 9.85088 35.6397 11.4688 35.6397 13.1342C35.6397 14.7995 35.0855 16.4174 34.0643 17.7329C33.0432 19.0485 31.6133 19.9867 30 20.3998M24.375 13.125C24.375 17.2671 21.0171 20.625 16.875 20.625C12.7329 20.625 9.375 17.2671 9.375 13.125C9.375 8.98286 12.7329 5.625 16.875 5.625C21.0171 5.625 24.375 8.98286 24.375 13.125Z" stroke="black" stroke-width="3" stroke-linecap="round" stroke-linejoin="round"/>
</svg>
